<svg width="243" height="268" viewBox="0 0 243 268" fill="none" xmlns="http://www.w3.org/2000/svg">
<g opacity="0.06">
<path d="M192.351 47.7743L192.096 50.9615L189.697 48.8474C158.911 21.7138 120.181 6.57588 80.0339 6.13644H80.0337H80.0335H80.0333H80.0331H80.0328H80.0326H80.0324H80.0322H80.032H80.0317H80.0315H80.0313H80.0311H80.0308H80.0306H80.0304H80.0302H80.0299H80.0297H80.0295H80.0292H80.029H80.0288H80.0285H80.0283H80.0281H80.0278H80.0276H80.0274H80.0271H80.0269H80.0267H80.0264H80.0262H80.026H80.0257H80.0255H80.0253H80.025H80.0248H80.0245H80.0243H80.0241H80.0238H80.0236H80.0233H80.0231H80.0228H80.0226H80.0224H80.0221H80.0219H80.0216H80.0214H80.0211H80.0209H80.0206H80.0204H80.0201H80.0199H80.0196H80.0194H80.0191H80.0189H80.0186H80.0184H80.0181H80.0179H80.0176H80.0174H80.0171H80.0169H80.0166H80.0164H80.0161H80.0159H80.0156H80.0154H80.0151H80.0148H80.0146H80.0143H80.0141H80.0138H80.0135H80.0133H80.013H80.0128H80.0125H80.0122H80.012H80.0117H80.0115H80.0112H80.0109H80.0107H80.0104H80.0101H80.0099H80.0096H80.0094H80.0091H80.0088H80.0086H80.0083H80.008H80.0078H80.0075H80.0072H80.007H80.0067H80.0064H80.0062H80.0059H80.0056H80.0054H80.0051H80.0048H80.0045H80.0043H80.004H80.0037H80.0035H80.0032H80.0029H80.0027H80.0024H80.0021H80.0018H80.0016H80.0013H80.001H80.0007H80.0005H80.0002H79.9999H79.9996H79.9994H79.9991H79.9988H79.9986H79.9983H79.998H79.9977H79.9975H79.9972H79.9969H79.9966H79.9964H79.9961H79.9958H79.9955H79.9952H79.995H79.9947H79.9944H79.9941H79.9939H79.9936H79.9933H79.993H79.9927H79.9925H79.9922H79.9919H79.9916H79.9913H79.9911H79.9908H79.9905H79.9902H79.9899H79.9897H79.9894H79.9891H79.9888H79.9885H79.9883H79.988H79.9877H79.9874H79.9871H79.9869H79.9866H79.9863H79.986H79.9857H79.9855H79.9852H79.9849H79.9846H79.9843H79.984H79.9838H79.9835H79.9832H79.9829H79.9826H79.9824H79.9821H79.9818H79.9815H79.9812H79.9809H79.9807H79.9804H79.9801H79.9798H79.9795H79.9792H79.979H79.9787H79.9784H79.9781H79.9778H79.9776H79.9773H79.977H79.9767H79.9764H79.9761H79.9759H79.9756H79.9753H79.975H79.9747H79.9744H79.9742H79.9739H79.9736H79.9733H79.973H79.9728H79.9725H79.9722H79.9719H79.9716H79.9713H79.9711H79.9708H79.9705H79.9702H79.9699H79.9697H79.9694H79.9691H79.9688H79.9685H79.9683H79.968H79.9677H79.9674H79.9671H79.9669H79.9666H79.9663H79.966H79.9657H79.9655H79.9652H79.9649H79.9646H79.9643H79.9641H79.9638H79.9635H79.9632H79.963H79.9627H79.9624H79.9621H79.9618H79.9616H79.9613H79.961H79.9607H79.9604H79.9602H79.9599H79.9596H79.9594H79.9591H79.9588H79.9585H79.9583H79.958H79.9577H79.9574H79.9572H79.9569H79.9566H79.9563H79.9561H79.9558H79.9555H79.9552H79.955H79.9547H79.9544H79.9541H79.9539H79.9536H79.9533H79.9531H79.9528H79.9525H79.9523H79.952H79.9517H79.9514H79.9512H79.9509H79.9506H79.9504H79.9501H79.9498H79.9496H79.9493H79.949H79.9488H79.9485H79.9482H79.948H79.9477H79.9474H79.9472H79.9469H79.9467H79.9464H79.9461H79.9459H79.9456H79.9453H79.9451H79.9448H79.9446H79.9443H79.944H79.9438H79.9435H79.9433H79.943H79.9427H79.9425H79.9422H79.942H79.9417H79.9415H79.9412H79.9409H79.9407H79.9404H79.9402H79.9399H79.9397H79.9394H79.9392H79.9389H79.9387H79.9384H79.9382H79.9379H79.9377H79.9374H79.9372H79.9369H79.9367H79.9364H79.9362H79.9359H79.9357H79.9354H79.9352H79.9349H79.9347H79.9344H79.9342H79.934H79.9337H79.9335H79.9332H79.933H79.9327H79.9325H79.9323H79.932H79.9318H79.9315H79.9313H79.9311H79.9308H79.9306H79.9304H79.9301H79.9299H79.9297H79.9294H79.9292H79.929H79.9287H79.9285H79.9283H79.928H79.9278H79.9276H79.9273H79.9271H79.9269H79.9267H79.9264H79.9262H79.926H79.9258H79.9255H79.9253H79.9251H79.9249H79.9246H79.9244H79.9242H79.924H79.9238H79.9235H79.9233H79.9231H79.9229H79.9227H79.9224H79.9222H79.922H79.9218H79.9216H79.9214H79.9212H79.9209H79.9207H79.9205H79.9203H79.9201H79.9199H79.9197H79.9195H79.9193H79.9191H79.9189H79.9187H79.9185H79.9182H79.918H79.9178H79.9176H79.9174H79.9172H79.917H79.9168H79.9166H79.9164H79.9163H79.9161H79.9159H79.9157H79.9155H79.9153H79.9151H79.9149H79.9147H79.9145H79.9143H79.9141C74.25 6.13644 69.2135 10.586 68.2928 16.6969C64.0428 45.08 63.9471 73.867 68.0689 102.248L68.072 102.269L68.0745 102.29C68.1162 102.643 68.2247 103.007 68.386 103.405L68.4344 103.524L68.463 103.65C76.8178 140.231 99.4931 171.44 130.765 189.348L130.768 189.35C149.351 200.047 169.991 205.443 190.723 205.443C204.321 205.443 217.954 203.097 231.083 198.403L231.807 198.144L232.462 198.548C244.342 205.875 256.731 212.223 269.63 217.557L269.642 217.562C270.09 217.751 270.552 217.843 271.011 217.843C272.504 217.843 273.973 216.888 274.584 215.224L274.587 215.215L274.591 215.206C275.422 213.02 274.346 210.589 272.391 209.781L272.389 209.78C259.197 204.31 246.523 197.745 234.431 190.121L234.427 190.119C234.395 190.098 234.364 190.079 234.337 190.061C234.314 190.046 234.294 190.032 234.276 190.02L234.232 189.99C234.215 189.979 234.203 189.971 234.191 189.963C234.187 189.961 234.184 189.959 234.182 189.957L234.09 189.918L233.978 189.848C196.283 165.987 164.579 132.152 142.412 91.6618L142.409 91.6559C141.311 89.6303 138.975 89.028 137.2 90.1173L137.193 90.1219C135.32 91.257 134.628 93.8347 135.742 95.8642L135.745 95.8693C150.761 123.471 169.96 148.026 192.796 168.796C201.452 176.665 210.522 183.892 219.975 190.477L222.806 192.449L219.472 193.338C190.887 200.954 160.413 197.024 134.25 182.003C104.571 165.02 83.2302 135.345 75.5878 100.648L75.5774 100.6L75.5698 100.553C75.5596 100.488 75.535 100.399 75.4637 100.173L75.4237 100.046L75.4052 99.9141C71.5927 72.7198 71.7219 45.1834 75.7929 18.0231L75.7943 18.0136L75.7958 18.0042C76.1031 16.1087 77.8084 14.4853 79.8178 14.4853H79.8179H79.8181H79.8183H79.8185H79.8187H79.8189H79.8191H79.8192H79.8194H79.8196H79.8198H79.82H79.8201H79.8203H79.8205H79.8207H79.8209H79.821H79.8212H79.8214H79.8216H79.8217H79.8219H79.8221H79.8223H79.8224H79.8226H79.8228H79.8229H79.8231H79.8233H79.8234H79.8236H79.8237H79.8239H79.8241H79.8242H79.8244H79.8246H79.8247H79.8249H79.825H79.8252H79.8253H79.8255H79.8257H79.8258H79.826H79.8261H79.8263H79.8264H79.8266H79.8267H79.8269H79.827H79.8272H79.8273H79.8275H79.8276H79.8278H79.8279H79.8281H79.8282H79.8284H79.8285H79.8287H79.8288H79.8289H79.8291H79.8292H79.8294H79.8295H79.8296H79.8298H79.8299H79.83H79.8302H79.8303H79.8305H79.8306H79.8307H79.8309H79.831H79.8311H79.8313H79.8314H79.8315H79.8316H79.8318H79.8319H79.832H79.8322H79.8323H79.8324H79.8325H79.8327H79.8328H79.8329H79.833H79.8331H79.8333H79.8334H79.8335H79.8336H79.8338H79.834H79.8341H79.8342H79.8345H79.8347H79.8349H79.8351H79.8353H79.8355H79.8357H79.8359H79.8361H79.8363H79.8365H79.8367H79.837H79.8372H79.8374H79.8376H79.8378H79.838H79.8382H79.8383H79.8385H79.8387H79.8389H79.8391H79.8393H79.8394H79.8396H79.8398H79.84H79.8401H79.8403H79.8405H79.8406H79.8408H79.841H79.8411H79.8413H79.8414H79.8416H79.8418H79.8419H79.842H79.8422H79.8423H79.8425H79.8426H79.8428H79.8429H79.843H79.8432H79.8433H79.8434H79.8436H79.8437H79.8438H79.8439H79.8441H79.8442H79.8443H79.8445H79.8446H79.8448H79.845H79.8451H79.8453H79.8454H79.8456H79.8457H79.8459H79.846H79.8461H79.8463H79.8464H79.8465H79.8467H79.8468H79.8469H79.8471H79.8472H79.8474H79.8475H79.8476H79.8478H79.8479H79.848H79.8482H79.8483H79.8484H79.8485H79.8487H79.8488H79.8489H79.849H79.8492H79.8493H79.8494H79.8495H79.8496H79.8498H79.8499H79.8588L79.8676 14.4854C154.158 15.3094 218.412 68.8542 238.276 142.488L238.306 142.601L238.32 142.717C238.368 143.122 238.459 143.474 238.612 143.821L238.664 143.937L238.696 144.06C240.707 151.709 242.198 159.593 243.202 167.642L243.203 167.648C243.466 169.821 245.177 171.267 247.011 171.267C247.264 171.267 247.395 171.264 247.479 171.251L247.486 171.25C249.577 170.944 251.141 168.907 250.852 166.539L250.851 166.538C249.927 158.924 248.558 151.446 246.742 144.104L246.539 143.282L247.104 142.651C266.309 121.239 277.094 93.3477 277.538 63.6913L277.538 63.6905C278.014 32.893 267.291 3.5922 247.388 -18.8277L247.387 -18.8293C243.67 -23.0279 237.761 -23.8618 232.991 -20.8473L232.99 -20.8467C219.782 -12.5133 208.959 -0.506382 201.761 13.8808C196.489 24.4302 193.299 35.9506 192.351 47.7743ZM237.148 144.467C236.923 143.958 236.794 143.448 236.73 142.905L247.718 172.834C247.493 172.868 247.236 172.868 247.011 172.868H247.011C244.312 172.868 241.967 170.762 241.614 167.84C240.618 159.857 239.14 152.043 237.148 144.467ZM225.897 87.0029L225.841 92.4227L222.944 87.842C216.382 77.4684 208.803 67.7701 200.269 58.9149L199.84 58.4701L199.822 57.8525C198.938 28.6418 212.98 1.39195 236.905 -13.6694L236.913 -13.6742L236.921 -13.6789C238.446 -14.6156 240.566 -14.5773 241.884 -13.0659C278.191 27.8121 279.327 89.5881 245.953 131.703L244.084 134.061L243.172 131.194C240.688 123.381 237.694 115.802 234.252 108.456L234.119 108.172L234.103 107.858C233.362 93.2341 233.457 81.3038 234.364 70.4455C235.302 59.1219 237.145 47.1656 239.95 33.8673C240.435 31.5005 239.03 29.3206 237.014 28.8572C234.989 28.3916 232.892 29.7006 232.419 32.0018L232.417 32.0087C229.537 45.715 227.653 58.0143 226.663 69.6909C226.217 75.1526 225.961 80.8551 225.897 87.0029ZM235.959 70.5777C235.06 81.3469 234.963 93.2032 235.702 107.777L241.517 34.1934C238.722 47.4426 236.891 59.3328 235.959 70.5777Z" fill="white" stroke="#2B6A4A" stroke-width="3.2017"/>
</g>
</svg>
